<?xml version="1.0" encoding="UTF-8" standalone="no"?>
<!DOCTYPE svg PUBLIC "-//W3C//DTD SVG 1.1//EN"
 "http://www.w3.org/Graphics/SVG/1.1/DTD/svg11.dtd">
<!-- Generated by graphviz version 2.40.1 (20161225.0304)
 -->
<!-- Title: dependencies Pages: 1 -->
<svg width="1270pt" height="284pt"
 viewBox="0.00 0.00 1270.00 284.00" xmlns="http://www.w3.org/2000/svg" xmlns:xlink="http://www.w3.org/1999/xlink">
<g id="graph0" class="graph" transform="scale(1 1) rotate(0) translate(4 280)">
<title>dependencies</title>
<polygon fill="#ffffff" stroke="transparent" points="-4,4 -4,-280 1266,-280 1266,4 -4,4"/>
<text text-anchor="start" x="610.0091" y="-42.4" font-family="sans-serif" font-weight="bold" font-size="14.00" fill="#000000">Legend</text>
<polygon fill="#ffffb3" stroke="transparent" points="397,-10 397,-30 417,-30 417,-10 397,-10"/>
<text text-anchor="start" x="420.629" y="-15.4" font-family="sans-serif" font-size="14.00" fill="#000000"> &#160;Declarations</text>
<polygon fill="#8dd3c7" stroke="transparent" points="510,-10 510,-30 530,-30 530,-10 510,-10"/>
<text text-anchor="start" x="533.7251" y="-15.4" font-family="sans-serif" font-size="14.00" fill="#000000"> &#160;Module</text>
<polygon fill="#80b1d3" stroke="transparent" points="596,-10 596,-30 616,-30 616,-10 596,-10"/>
<text text-anchor="start" x="619.7812" y="-15.4" font-family="sans-serif" font-size="14.00" fill="#000000"> &#160;Bootstrap</text>
<polygon fill="#fdb462" stroke="transparent" points="693,-10 693,-30 713,-30 713,-10 693,-10"/>
<text text-anchor="start" x="716.6732" y="-15.4" font-family="sans-serif" font-size="14.00" fill="#000000"> &#160;Providers</text>
<polygon fill="#fb8072" stroke="transparent" points="789,-10 789,-30 809,-30 809,-10 789,-10"/>
<text text-anchor="start" x="812.7258" y="-15.4" font-family="sans-serif" font-size="14.00" fill="#000000"> &#160;Exports</text>
<g id="clust1" class="cluster">
<title>cluster_AppModule</title>
<polygon fill="none" stroke="#000000" stroke-dasharray="1,5" points="8,-70 8,-268 1254,-268 1254,-70 8,-70"/>
</g>
<g id="clust2" class="cluster">
<title>cluster_AppModule_declarations</title>
<polygon fill="none" stroke="#000000" points="528,-78 528,-130 1246,-130 1246,-78 528,-78"/>
</g>
<g id="clust8" class="cluster">
<title>cluster_AppModule_imports</title>
<polygon fill="none" stroke="#000000" points="376,-78 376,-130 520,-130 520,-78 376,-78"/>
</g>
<g id="clust10" class="cluster">
<title>cluster_AppModule_bootstrap</title>
<polygon fill="none" stroke="#000000" points="606,-208 606,-260 730,-260 730,-208 606,-208"/>
</g>
<g id="clust11" class="cluster">
<title>cluster_AppModule_providers</title>
<polygon fill="none" stroke="#000000" points="16,-78 16,-130 368,-130 368,-78 16,-78"/>
</g>
<!-- AdminLayoutComponent -->
<g id="node1" class="node">
<title>AdminLayoutComponent</title>
<polygon fill="#ffffb3" stroke="#000000" points="1237.878,-122 1078.122,-122 1078.122,-86 1237.878,-86 1237.878,-122"/>
<text text-anchor="middle" x="1158" y="-99.8" font-family="Times,serif" font-size="14.00" fill="#000000">AdminLayoutComponent</text>
</g>
<!-- AppModule -->
<g id="node6" class="node">
<title>AppModule</title>
<polygon fill="#8dd3c7" stroke="#000000" points="709.6571,-187 706.6571,-191 685.6571,-191 682.6571,-187 626.3429,-187 626.3429,-151 709.6571,-151 709.6571,-187"/>
<text text-anchor="middle" x="668" y="-164.8" font-family="Times,serif" font-size="14.00" fill="#000000">AppModule</text>
</g>
<!-- AdminLayoutComponent&#45;&gt;AppModule -->
<g id="edge1" class="edge">
<title>AdminLayoutComponent&#45;&gt;AppModule</title>
<path fill="none" stroke="#000000" d="M1158,-122.2921C1158,-144.2057 1158,-178 1158,-178 1158,-178 719.7771,-178 719.7771,-178"/>
<polygon fill="#000000" stroke="#000000" points="719.7772,-174.5001 709.7771,-178 719.7771,-181.5001 719.7772,-174.5001"/>
</g>
<!-- AppComponent -->
<g id="node2" class="node">
<title>AppComponent</title>
<polygon fill="#ffffb3" stroke="#000000" points="1059.9399,-122 954.0601,-122 954.0601,-86 1059.9399,-86 1059.9399,-122"/>
<text text-anchor="middle" x="1007" y="-99.8" font-family="Times,serif" font-size="14.00" fill="#000000">AppComponent</text>
</g>
<!-- AppComponent&#45;&gt;AppModule -->
<g id="edge2" class="edge">
<title>AppComponent&#45;&gt;AppModule</title>
<path fill="none" stroke="#000000" d="M1007,-122.1061C1007,-141.3391 1007,-169 1007,-169 1007,-169 719.9081,-169 719.9081,-169"/>
<polygon fill="#000000" stroke="#000000" points="719.9081,-165.5001 709.9081,-169 719.908,-172.5001 719.9081,-165.5001"/>
</g>
<!-- FooterComponent -->
<g id="node3" class="node">
<title>FooterComponent</title>
<polygon fill="#ffffb3" stroke="#000000" points="935.8809,-122 818.1191,-122 818.1191,-86 935.8809,-86 935.8809,-122"/>
<text text-anchor="middle" x="877" y="-99.8" font-family="Times,serif" font-size="14.00" fill="#000000">FooterComponent</text>
</g>
<!-- FooterComponent&#45;&gt;AppModule -->
<g id="edge3" class="edge">
<title>FooterComponent&#45;&gt;AppModule</title>
<path fill="none" stroke="#000000" d="M877,-122.027C877,-138.3976 877,-160 877,-160 877,-160 719.792,-160 719.792,-160"/>
<polygon fill="#000000" stroke="#000000" points="719.792,-156.5001 709.792,-160 719.7919,-163.5001 719.792,-156.5001"/>
</g>
<!-- NavbarComponent -->
<g id="node4" class="node">
<title>NavbarComponent</title>
<polygon fill="#ffffb3" stroke="#000000" points="800.0297,-122 677.9703,-122 677.9703,-86 800.0297,-86 800.0297,-122"/>
<text text-anchor="middle" x="739" y="-99.8" font-family="Times,serif" font-size="14.00" fill="#000000">NavbarComponent</text>
</g>
<!-- NavbarComponent&#45;&gt;AppModule -->
<g id="edge4" class="edge">
<title>NavbarComponent&#45;&gt;AppModule</title>
<path fill="none" stroke="#000000" d="M693.7819,-122.1061C693.7819,-122.1061 693.7819,-140.991 693.7819,-140.991"/>
<polygon fill="#000000" stroke="#000000" points="690.282,-140.9909 693.7819,-150.991 697.282,-140.991 690.282,-140.9909"/>
</g>
<!-- SidebarComponent -->
<g id="node5" class="node">
<title>SidebarComponent</title>
<polygon fill="#ffffb3" stroke="#000000" points="660.0954,-122 535.9046,-122 535.9046,-86 660.0954,-86 660.0954,-122"/>
<text text-anchor="middle" x="598" y="-99.8" font-family="Times,serif" font-size="14.00" fill="#000000">SidebarComponent</text>
</g>
<!-- SidebarComponent&#45;&gt;AppModule -->
<g id="edge5" class="edge">
<title>SidebarComponent&#45;&gt;AppModule</title>
<path fill="none" stroke="#000000" d="M643.1098,-122.1061C643.1098,-122.1061 643.1098,-140.991 643.1098,-140.991"/>
<polygon fill="#000000" stroke="#000000" points="639.6098,-140.9909 643.1098,-150.991 646.6098,-140.991 639.6098,-140.9909"/>
</g>
<!-- AppComponent  -->
<g id="node8" class="node">
<title>AppComponent </title>
<polygon fill="#80b1d3" stroke="#000000" points="722.439,-252 613.561,-252 613.561,-216 722.439,-216 722.439,-252"/>
<text text-anchor="middle" x="668" y="-229.8" font-family="Times,serif" font-size="14.00" fill="#000000">AppComponent </text>
</g>
<!-- AppModule&#45;&gt;AppComponent  -->
<g id="edge7" class="edge">
<title>AppModule&#45;&gt;AppComponent </title>
<path fill="none" stroke="#000000" stroke-dasharray="1,5" d="M668,-187.1061C668,-187.1061 668,-205.991 668,-205.991"/>
<polygon fill="#000000" stroke="#000000" points="664.5001,-205.9909 668,-215.991 671.5001,-205.991 664.5001,-205.9909"/>
</g>
<!-- AppRoutingModule -->
<g id="node7" class="node">
<title>AppRoutingModule</title>
<polygon fill="#8dd3c7" stroke="#000000" points="512.2744,-122 509.2744,-126 488.2744,-126 485.2744,-122 383.7256,-122 383.7256,-86 512.2744,-86 512.2744,-122"/>
<text text-anchor="middle" x="448" y="-99.8" font-family="Times,serif" font-size="14.00" fill="#000000">AppRoutingModule</text>
</g>
<!-- AppRoutingModule&#45;&gt;AppModule -->
<g id="edge6" class="edge">
<title>AppRoutingModule&#45;&gt;AppModule</title>
<path fill="none" stroke="#000000" d="M448,-122.027C448,-138.3976 448,-160 448,-160 448,-160 616.1018,-160 616.1018,-160"/>
<polygon fill="#000000" stroke="#000000" points="616.1019,-163.5001 626.1018,-160 616.1018,-156.5001 616.1019,-163.5001"/>
</g>
<!-- AuthenticationService -->
<g id="node9" class="node">
<title>AuthenticationService</title>
<ellipse fill="#fdb462" stroke="#000000" cx="263" cy="-104" rx="97.2683" ry="18"/>
<text text-anchor="middle" x="263" y="-99.8" font-family="Times,serif" font-size="14.00" fill="#000000">AuthenticationService</text>
</g>
<!-- AuthenticationService&#45;&gt;AppModule -->
<g id="edge8" class="edge">
<title>AuthenticationService&#45;&gt;AppModule</title>
<path fill="none" stroke="#000000" d="M263,-122.1061C263,-141.3391 263,-169 263,-169 263,-169 616.1833,-169 616.1833,-169"/>
<polygon fill="#000000" stroke="#000000" points="616.1833,-172.5001 626.1833,-169 616.1833,-165.5001 616.1833,-172.5001"/>
</g>
<!-- UsersService -->
<g id="node10" class="node">
<title>UsersService</title>
<ellipse fill="#fdb462" stroke="#000000" cx="86" cy="-104" rx="61.9519" ry="18"/>
<text text-anchor="middle" x="86" y="-99.8" font-family="Times,serif" font-size="14.00" fill="#000000">UsersService</text>
</g>
<!-- UsersService&#45;&gt;AppModule -->
<g id="edge9" class="edge">
<title>UsersService&#45;&gt;AppModule</title>
<path fill="none" stroke="#000000" d="M86,-122.2921C86,-144.2057 86,-178 86,-178 86,-178 616.144,-178 616.144,-178"/>
<polygon fill="#000000" stroke="#000000" points="616.144,-181.5001 626.144,-178 616.144,-174.5001 616.144,-181.5001"/>
</g>
</g>
</svg>
