<?xml version="1.0" encoding="UTF-8" standalone="no"?>
<!DOCTYPE svg PUBLIC "-//W3C//DTD SVG 1.1//EN"
 "http://www.w3.org/Graphics/SVG/1.1/DTD/svg11.dtd">
<!-- Generated by graphviz version 2.40.1 (20161225.0304)
 -->
<!-- Title: dependencies Pages: 1 -->
<svg width="2843pt" height="284pt"
 viewBox="0.00 0.00 2843.00 284.00" xmlns="http://www.w3.org/2000/svg" xmlns:xlink="http://www.w3.org/1999/xlink">
<g id="graph0" class="graph" transform="scale(1 1) rotate(0) translate(4 280)">
<title>dependencies</title>
<polygon fill="#ffffff" stroke="transparent" points="-4,4 -4,-280 2839,-280 2839,4 -4,4"/>
<text text-anchor="start" x="1396.5091" y="-42.4" font-family="sans-serif" font-weight="bold" font-size="14.00" fill="#000000">Legend</text>
<polygon fill="#ffffb3" stroke="transparent" points="1183.5,-10 1183.5,-30 1203.5,-30 1203.5,-10 1183.5,-10"/>
<text text-anchor="start" x="1207.129" y="-15.4" font-family="sans-serif" font-size="14.00" fill="#000000"> &#160;Declarations</text>
<polygon fill="#8dd3c7" stroke="transparent" points="1296.5,-10 1296.5,-30 1316.5,-30 1316.5,-10 1296.5,-10"/>
<text text-anchor="start" x="1320.2251" y="-15.4" font-family="sans-serif" font-size="14.00" fill="#000000"> &#160;Module</text>
<polygon fill="#80b1d3" stroke="transparent" points="1382.5,-10 1382.5,-30 1402.5,-30 1402.5,-10 1382.5,-10"/>
<text text-anchor="start" x="1406.2812" y="-15.4" font-family="sans-serif" font-size="14.00" fill="#000000"> &#160;Bootstrap</text>
<polygon fill="#fdb462" stroke="transparent" points="1479.5,-10 1479.5,-30 1499.5,-30 1499.5,-10 1479.5,-10"/>
<text text-anchor="start" x="1503.1732" y="-15.4" font-family="sans-serif" font-size="14.00" fill="#000000"> &#160;Providers</text>
<polygon fill="#fb8072" stroke="transparent" points="1575.5,-10 1575.5,-30 1595.5,-30 1595.5,-10 1575.5,-10"/>
<text text-anchor="start" x="1599.2258" y="-15.4" font-family="sans-serif" font-size="14.00" fill="#000000"> &#160;Exports</text>
<g id="clust1" class="cluster">
<title>cluster_AdminLayoutModule</title>
<polygon fill="none" stroke="#000000" stroke-dasharray="1,5" points="8,-70 8,-195 182,-195 182,-70 8,-70"/>
</g>
<g id="clust2" class="cluster">
<title>cluster_AdminLayoutModule_declarations</title>
<polygon fill="none" stroke="#000000" points="16,-78 16,-130 174,-130 174,-78 16,-78"/>
</g>
<g id="clust8" class="cluster">
<title>cluster_AppModule</title>
<polygon fill="none" stroke="#000000" stroke-dasharray="1,5" points="190,-70 190,-268 1436,-268 1436,-70 190,-70"/>
</g>
<g id="clust9" class="cluster">
<title>cluster_AppModule_declarations</title>
<polygon fill="none" stroke="#000000" points="710,-78 710,-130 1428,-130 1428,-78 710,-78"/>
</g>
<g id="clust15" class="cluster">
<title>cluster_AppModule_imports</title>
<polygon fill="none" stroke="#000000" points="558,-78 558,-130 702,-130 702,-78 558,-78"/>
</g>
<g id="clust17" class="cluster">
<title>cluster_AppModule_bootstrap</title>
<polygon fill="none" stroke="#000000" points="788,-208 788,-260 912,-260 912,-208 788,-208"/>
</g>
<g id="clust18" class="cluster">
<title>cluster_AppModule_providers</title>
<polygon fill="none" stroke="#000000" points="198,-78 198,-130 550,-130 550,-78 198,-78"/>
</g>
<g id="clust25" class="cluster">
<title>cluster_AuthModule</title>
<polygon fill="none" stroke="#000000" stroke-dasharray="1,5" points="1444,-70 1444,-195 1892,-195 1892,-70 1444,-70"/>
</g>
<g id="clust26" class="cluster">
<title>cluster_AuthModule_declarations</title>
<polygon fill="none" stroke="#000000" points="1608,-78 1608,-130 1884,-130 1884,-78 1608,-78"/>
</g>
<g id="clust29" class="cluster">
<title>cluster_AuthModule_imports</title>
<polygon fill="none" stroke="#000000" points="1452,-78 1452,-130 1600,-130 1600,-78 1452,-78"/>
</g>
<g id="clust39" class="cluster">
<title>cluster_NotFoundModule</title>
<polygon fill="none" stroke="#000000" stroke-dasharray="1,5" points="1900,-70 1900,-195 2070,-195 2070,-70 1900,-70"/>
</g>
<g id="clust40" class="cluster">
<title>cluster_NotFoundModule_declarations</title>
<polygon fill="none" stroke="#000000" points="1908,-78 1908,-130 2062,-130 2062,-78 1908,-78"/>
</g>
<g id="clust46" class="cluster">
<title>cluster_UsersModule</title>
<polygon fill="none" stroke="#000000" stroke-dasharray="1,5" points="2078,-70 2078,-195 2827,-195 2827,-70 2078,-70"/>
</g>
<g id="clust47" class="cluster">
<title>cluster_UsersModule_declarations</title>
<polygon fill="none" stroke="#000000" points="2246,-78 2246,-130 2819,-130 2819,-78 2246,-78"/>
</g>
<g id="clust52" class="cluster">
<title>cluster_UsersModule_imports</title>
<polygon fill="none" stroke="#000000" points="2086,-78 2086,-130 2238,-130 2238,-78 2086,-78"/>
</g>
<!-- DashboardComponent -->
<g id="node1" class="node">
<title>DashboardComponent</title>
<polygon fill="#ffffb3" stroke="#000000" points="165.9734,-122 24.0266,-122 24.0266,-86 165.9734,-86 165.9734,-122"/>
<text text-anchor="middle" x="95" y="-99.8" font-family="Times,serif" font-size="14.00" fill="#000000">DashboardComponent</text>
</g>
<!-- AdminLayoutModule -->
<g id="node2" class="node">
<title>AdminLayoutModule</title>
<polygon fill="#8dd3c7" stroke="#000000" points="164.0954,-187 161.0954,-191 140.0954,-191 137.0954,-187 25.9046,-187 25.9046,-151 164.0954,-151 164.0954,-187"/>
<text text-anchor="middle" x="95" y="-164.8" font-family="Times,serif" font-size="14.00" fill="#000000">AdminLayoutModule</text>
</g>
<!-- DashboardComponent&#45;&gt;AdminLayoutModule -->
<g id="edge1" class="edge">
<title>DashboardComponent&#45;&gt;AdminLayoutModule</title>
<path fill="none" stroke="#000000" d="M95,-122.1061C95,-122.1061 95,-140.991 95,-140.991"/>
<polygon fill="#000000" stroke="#000000" points="91.5001,-140.9909 95,-150.991 98.5001,-140.991 91.5001,-140.9909"/>
</g>
<!-- AdminLayoutComponent -->
<g id="node3" class="node">
<title>AdminLayoutComponent</title>
<polygon fill="#ffffb3" stroke="#000000" points="1419.878,-122 1260.122,-122 1260.122,-86 1419.878,-86 1419.878,-122"/>
<text text-anchor="middle" x="1340" y="-99.8" font-family="Times,serif" font-size="14.00" fill="#000000">AdminLayoutComponent</text>
</g>
<!-- AppModule -->
<g id="node8" class="node">
<title>AppModule</title>
<polygon fill="#8dd3c7" stroke="#000000" points="891.6571,-187 888.6571,-191 867.6571,-191 864.6571,-187 808.3429,-187 808.3429,-151 891.6571,-151 891.6571,-187"/>
<text text-anchor="middle" x="850" y="-164.8" font-family="Times,serif" font-size="14.00" fill="#000000">AppModule</text>
</g>
<!-- AdminLayoutComponent&#45;&gt;AppModule -->
<g id="edge2" class="edge">
<title>AdminLayoutComponent&#45;&gt;AppModule</title>
<path fill="none" stroke="#000000" d="M1340,-122.1289C1340,-142.5724 1340,-173 1340,-173 1340,-173 901.7771,-173 901.7771,-173"/>
<polygon fill="#000000" stroke="#000000" points="901.7772,-169.5001 891.7771,-173 901.7771,-176.5001 901.7772,-169.5001"/>
</g>
<!-- AppComponent -->
<g id="node4" class="node">
<title>AppComponent</title>
<polygon fill="#ffffb3" stroke="#000000" points="1241.9399,-122 1136.0601,-122 1136.0601,-86 1241.9399,-86 1241.9399,-122"/>
<text text-anchor="middle" x="1189" y="-99.8" font-family="Times,serif" font-size="14.00" fill="#000000">AppComponent</text>
</g>
<!-- AppComponent&#45;&gt;AppModule -->
<g id="edge3" class="edge">
<title>AppComponent&#45;&gt;AppModule</title>
<path fill="none" stroke="#000000" d="M1189,-122.2667C1189,-140.5552 1189,-166 1189,-166 1189,-166 901.9081,-166 901.9081,-166"/>
<polygon fill="#000000" stroke="#000000" points="901.9081,-162.5001 891.9081,-166 901.908,-169.5001 901.9081,-162.5001"/>
</g>
<!-- FooterComponent -->
<g id="node5" class="node">
<title>FooterComponent</title>
<polygon fill="#ffffb3" stroke="#000000" points="1117.8809,-122 1000.1191,-122 1000.1191,-86 1117.8809,-86 1117.8809,-122"/>
<text text-anchor="middle" x="1059" y="-99.8" font-family="Times,serif" font-size="14.00" fill="#000000">FooterComponent</text>
</g>
<!-- FooterComponent&#45;&gt;AppModule -->
<g id="edge4" class="edge">
<title>FooterComponent&#45;&gt;AppModule</title>
<path fill="none" stroke="#000000" d="M1059,-122.0091C1059,-138.0494 1059,-159 1059,-159 1059,-159 901.792,-159 901.792,-159"/>
<polygon fill="#000000" stroke="#000000" points="901.792,-155.5001 891.792,-159 901.7919,-162.5001 901.792,-155.5001"/>
</g>
<!-- NavbarComponent -->
<g id="node6" class="node">
<title>NavbarComponent</title>
<polygon fill="#ffffb3" stroke="#000000" points="982.0297,-122 859.9703,-122 859.9703,-86 982.0297,-86 982.0297,-122"/>
<text text-anchor="middle" x="921" y="-99.8" font-family="Times,serif" font-size="14.00" fill="#000000">NavbarComponent</text>
</g>
<!-- NavbarComponent&#45;&gt;AppModule -->
<g id="edge5" class="edge">
<title>NavbarComponent&#45;&gt;AppModule</title>
<path fill="none" stroke="#000000" d="M875.7819,-122.1061C875.7819,-122.1061 875.7819,-140.991 875.7819,-140.991"/>
<polygon fill="#000000" stroke="#000000" points="872.282,-140.9909 875.7819,-150.991 879.282,-140.991 872.282,-140.9909"/>
</g>
<!-- SidebarComponent -->
<g id="node7" class="node">
<title>SidebarComponent</title>
<polygon fill="#ffffb3" stroke="#000000" points="842.0954,-122 717.9046,-122 717.9046,-86 842.0954,-86 842.0954,-122"/>
<text text-anchor="middle" x="780" y="-99.8" font-family="Times,serif" font-size="14.00" fill="#000000">SidebarComponent</text>
</g>
<!-- SidebarComponent&#45;&gt;AppModule -->
<g id="edge6" class="edge">
<title>SidebarComponent&#45;&gt;AppModule</title>
<path fill="none" stroke="#000000" d="M825.1098,-122.1061C825.1098,-122.1061 825.1098,-140.991 825.1098,-140.991"/>
<polygon fill="#000000" stroke="#000000" points="821.6098,-140.9909 825.1098,-150.991 828.6098,-140.991 821.6098,-140.9909"/>
</g>
<!-- AppComponent  -->
<g id="node10" class="node">
<title>AppComponent </title>
<polygon fill="#80b1d3" stroke="#000000" points="904.439,-252 795.561,-252 795.561,-216 904.439,-216 904.439,-252"/>
<text text-anchor="middle" x="850" y="-229.8" font-family="Times,serif" font-size="14.00" fill="#000000">AppComponent </text>
</g>
<!-- AppModule&#45;&gt;AppComponent  -->
<g id="edge8" class="edge">
<title>AppModule&#45;&gt;AppComponent </title>
<path fill="none" stroke="#000000" stroke-dasharray="1,5" d="M850,-187.1061C850,-187.1061 850,-205.991 850,-205.991"/>
<polygon fill="#000000" stroke="#000000" points="846.5001,-205.9909 850,-215.991 853.5001,-205.991 846.5001,-205.9909"/>
</g>
<!-- AppRoutingModule -->
<g id="node9" class="node">
<title>AppRoutingModule</title>
<polygon fill="#8dd3c7" stroke="#000000" points="694.2744,-122 691.2744,-126 670.2744,-126 667.2744,-122 565.7256,-122 565.7256,-86 694.2744,-86 694.2744,-122"/>
<text text-anchor="middle" x="630" y="-99.8" font-family="Times,serif" font-size="14.00" fill="#000000">AppRoutingModule</text>
</g>
<!-- AppRoutingModule&#45;&gt;AppModule -->
<g id="edge7" class="edge">
<title>AppRoutingModule&#45;&gt;AppModule</title>
<path fill="none" stroke="#000000" d="M630,-122.027C630,-138.3976 630,-160 630,-160 630,-160 798.1018,-160 798.1018,-160"/>
<polygon fill="#000000" stroke="#000000" points="798.1019,-163.5001 808.1018,-160 798.1018,-156.5001 798.1019,-163.5001"/>
</g>
<!-- AuthenticationService -->
<g id="node11" class="node">
<title>AuthenticationService</title>
<ellipse fill="#fdb462" stroke="#000000" cx="445" cy="-104" rx="97.2683" ry="18"/>
<text text-anchor="middle" x="445" y="-99.8" font-family="Times,serif" font-size="14.00" fill="#000000">AuthenticationService</text>
</g>
<!-- AuthenticationService&#45;&gt;AppModule -->
<g id="edge9" class="edge">
<title>AuthenticationService&#45;&gt;AppModule</title>
<path fill="none" stroke="#000000" d="M445,-122.1061C445,-141.3391 445,-169 445,-169 445,-169 798.1833,-169 798.1833,-169"/>
<polygon fill="#000000" stroke="#000000" points="798.1833,-172.5001 808.1833,-169 798.1833,-165.5001 798.1833,-172.5001"/>
</g>
<!-- UsersService -->
<g id="node12" class="node">
<title>UsersService</title>
<ellipse fill="#fdb462" stroke="#000000" cx="268" cy="-104" rx="61.9519" ry="18"/>
<text text-anchor="middle" x="268" y="-99.8" font-family="Times,serif" font-size="14.00" fill="#000000">UsersService</text>
</g>
<!-- UsersService&#45;&gt;AppModule -->
<g id="edge10" class="edge">
<title>UsersService&#45;&gt;AppModule</title>
<path fill="none" stroke="#000000" d="M268,-122.2921C268,-144.2057 268,-178 268,-178 268,-178 798.144,-178 798.144,-178"/>
<polygon fill="#000000" stroke="#000000" points="798.144,-181.5001 808.144,-178 798.144,-174.5001 798.144,-181.5001"/>
</g>
<!-- LoginComponent -->
<g id="node13" class="node">
<title>LoginComponent</title>
<polygon fill="#ffffb3" stroke="#000000" points="1876.2758,-122 1761.7242,-122 1761.7242,-86 1876.2758,-86 1876.2758,-122"/>
<text text-anchor="middle" x="1819" y="-99.8" font-family="Times,serif" font-size="14.00" fill="#000000">LoginComponent</text>
</g>
<!-- AuthModule -->
<g id="node15" class="node">
<title>AuthModule</title>
<polygon fill="#8dd3c7" stroke="#000000" points="1723.5482,-187 1720.5482,-191 1699.5482,-191 1696.5482,-187 1636.4518,-187 1636.4518,-151 1723.5482,-151 1723.5482,-187"/>
<text text-anchor="middle" x="1680" y="-164.8" font-family="Times,serif" font-size="14.00" fill="#000000">AuthModule</text>
</g>
<!-- LoginComponent&#45;&gt;AuthModule -->
<g id="edge11" class="edge">
<title>LoginComponent&#45;&gt;AuthModule</title>
<path fill="none" stroke="#000000" d="M1819,-122.1061C1819,-141.3391 1819,-169 1819,-169 1819,-169 1733.5991,-169 1733.5991,-169"/>
<polygon fill="#000000" stroke="#000000" points="1733.5991,-165.5001 1723.5991,-169 1733.5991,-172.5001 1733.5991,-165.5001"/>
</g>
<!-- RegisterComponent -->
<g id="node14" class="node">
<title>RegisterComponent</title>
<polygon fill="#ffffb3" stroke="#000000" points="1743.9846,-122 1616.0154,-122 1616.0154,-86 1743.9846,-86 1743.9846,-122"/>
<text text-anchor="middle" x="1680" y="-99.8" font-family="Times,serif" font-size="14.00" fill="#000000">RegisterComponent</text>
</g>
<!-- RegisterComponent&#45;&gt;AuthModule -->
<g id="edge12" class="edge">
<title>RegisterComponent&#45;&gt;AuthModule</title>
<path fill="none" stroke="#000000" d="M1680,-122.1061C1680,-122.1061 1680,-140.991 1680,-140.991"/>
<polygon fill="#000000" stroke="#000000" points="1676.5001,-140.9909 1680,-150.991 1683.5001,-140.991 1676.5001,-140.9909"/>
</g>
<!-- AuthRoutingModule -->
<g id="node16" class="node">
<title>AuthRoutingModule</title>
<polygon fill="#8dd3c7" stroke="#000000" points="1592.1652,-122 1589.1652,-126 1568.1652,-126 1565.1652,-122 1459.8348,-122 1459.8348,-86 1592.1652,-86 1592.1652,-122"/>
<text text-anchor="middle" x="1526" y="-99.8" font-family="Times,serif" font-size="14.00" fill="#000000">AuthRoutingModule</text>
</g>
<!-- AuthRoutingModule&#45;&gt;AuthModule -->
<g id="edge13" class="edge">
<title>AuthRoutingModule&#45;&gt;AuthModule</title>
<path fill="none" stroke="#000000" d="M1526,-122.0109C1526,-144.4852 1526,-180 1526,-180 1526,-180 1626.2817,-180 1626.2817,-180"/>
<polygon fill="#000000" stroke="#000000" points="1626.2817,-183.5001 1636.2817,-180 1626.2817,-176.5001 1626.2817,-183.5001"/>
</g>
<!-- NotFoundComponent -->
<g id="node17" class="node">
<title>NotFoundComponent</title>
<polygon fill="#ffffb3" stroke="#000000" points="2054.1122,-122 1915.8878,-122 1915.8878,-86 2054.1122,-86 2054.1122,-122"/>
<text text-anchor="middle" x="1985" y="-99.8" font-family="Times,serif" font-size="14.00" fill="#000000">NotFoundComponent</text>
</g>
<!-- NotFoundModule -->
<g id="node18" class="node">
<title>NotFoundModule</title>
<polygon fill="#8dd3c7" stroke="#000000" points="2043.3301,-187 2040.3301,-191 2019.3301,-191 2016.3301,-187 1926.6699,-187 1926.6699,-151 2043.3301,-151 2043.3301,-187"/>
<text text-anchor="middle" x="1985" y="-164.8" font-family="Times,serif" font-size="14.00" fill="#000000">NotFoundModule</text>
</g>
<!-- NotFoundComponent&#45;&gt;NotFoundModule -->
<g id="edge14" class="edge">
<title>NotFoundComponent&#45;&gt;NotFoundModule</title>
<path fill="none" stroke="#000000" d="M1985,-122.1061C1985,-122.1061 1985,-140.991 1985,-140.991"/>
<polygon fill="#000000" stroke="#000000" points="1981.5001,-140.9909 1985,-150.991 1988.5001,-140.991 1981.5001,-140.9909"/>
</g>
<!-- UserComponent -->
<g id="node19" class="node">
<title>UserComponent</title>
<polygon fill="#ffffb3" stroke="#000000" points="2810.7591,-122 2703.2409,-122 2703.2409,-86 2810.7591,-86 2810.7591,-122"/>
<text text-anchor="middle" x="2757" y="-99.8" font-family="Times,serif" font-size="14.00" fill="#000000">UserComponent</text>
</g>
<!-- UsersModule -->
<g id="node23" class="node">
<title>UsersModule</title>
<polygon fill="#8dd3c7" stroke="#000000" points="2508.9218,-187 2505.9218,-191 2484.9218,-191 2481.9218,-187 2417.0782,-187 2417.0782,-151 2508.9218,-151 2508.9218,-187"/>
<text text-anchor="middle" x="2463" y="-164.8" font-family="Times,serif" font-size="14.00" fill="#000000">UsersModule</text>
</g>
<!-- UserComponent&#45;&gt;UsersModule -->
<g id="edge15" class="edge">
<title>UserComponent&#45;&gt;UsersModule</title>
<path fill="none" stroke="#000000" d="M2757,-122.2843C2757,-143.3211 2757,-175 2757,-175 2757,-175 2518.9375,-175 2518.9375,-175"/>
<polygon fill="#000000" stroke="#000000" points="2518.9375,-171.5001 2508.9375,-175 2518.9375,-178.5001 2518.9375,-171.5001"/>
</g>
<!-- UserDetailsComponent -->
<g id="node20" class="node">
<title>UserDetailsComponent</title>
<polygon fill="#ffffb3" stroke="#000000" points="2684.9116,-122 2537.0884,-122 2537.0884,-86 2684.9116,-86 2684.9116,-122"/>
<text text-anchor="middle" x="2611" y="-99.8" font-family="Times,serif" font-size="14.00" fill="#000000">UserDetailsComponent</text>
</g>
<!-- UserDetailsComponent&#45;&gt;UsersModule -->
<g id="edge16" class="edge">
<title>UserDetailsComponent&#45;&gt;UsersModule</title>
<path fill="none" stroke="#000000" d="M2611,-122.0225C2611,-139.3734 2611,-163 2611,-163 2611,-163 2519.0168,-163 2519.0168,-163"/>
<polygon fill="#000000" stroke="#000000" points="2519.0169,-159.5001 2509.0168,-163 2519.0168,-166.5001 2519.0169,-159.5001"/>
</g>
<!-- UsersComponent -->
<g id="node21" class="node">
<title>UsersComponent</title>
<polygon fill="#ffffb3" stroke="#000000" points="2519.7036,-122 2406.2964,-122 2406.2964,-86 2519.7036,-86 2519.7036,-122"/>
<text text-anchor="middle" x="2463" y="-99.8" font-family="Times,serif" font-size="14.00" fill="#000000">UsersComponent</text>
</g>
<!-- UsersComponent&#45;&gt;UsersModule -->
<g id="edge17" class="edge">
<title>UsersComponent&#45;&gt;UsersModule</title>
<path fill="none" stroke="#000000" d="M2463,-122.1061C2463,-122.1061 2463,-140.991 2463,-140.991"/>
<polygon fill="#000000" stroke="#000000" points="2459.5001,-140.9909 2463,-150.991 2466.5001,-140.991 2459.5001,-140.9909"/>
</g>
<!-- UsersListComponent -->
<g id="node22" class="node">
<title>UsersListComponent</title>
<polygon fill="#ffffb3" stroke="#000000" points="2388.4818,-122 2253.5182,-122 2253.5182,-86 2388.4818,-86 2388.4818,-122"/>
<text text-anchor="middle" x="2321" y="-99.8" font-family="Times,serif" font-size="14.00" fill="#000000">UsersListComponent</text>
</g>
<!-- UsersListComponent&#45;&gt;UsersModule -->
<g id="edge18" class="edge">
<title>UsersListComponent&#45;&gt;UsersModule</title>
<path fill="none" stroke="#000000" d="M2321,-122.0225C2321,-139.3734 2321,-163 2321,-163 2321,-163 2407.2887,-163 2407.2887,-163"/>
<polygon fill="#000000" stroke="#000000" points="2407.2887,-166.5001 2417.2887,-163 2407.2886,-159.5001 2407.2887,-166.5001"/>
</g>
<!-- UsersRoutingModule -->
<g id="node24" class="node">
<title>UsersRoutingModule</title>
<polygon fill="#8dd3c7" stroke="#000000" points="2230.0394,-122 2227.0394,-126 2206.0394,-126 2203.0394,-122 2093.9606,-122 2093.9606,-86 2230.0394,-86 2230.0394,-122"/>
<text text-anchor="middle" x="2162" y="-99.8" font-family="Times,serif" font-size="14.00" fill="#000000">UsersRoutingModule</text>
</g>
<!-- UsersRoutingModule&#45;&gt;UsersModule -->
<g id="edge19" class="edge">
<title>UsersRoutingModule&#45;&gt;UsersModule</title>
<path fill="none" stroke="#000000" d="M2162,-122.2843C2162,-143.3211 2162,-175 2162,-175 2162,-175 2407.2846,-175 2407.2846,-175"/>
<polygon fill="#000000" stroke="#000000" points="2407.2846,-178.5001 2417.2846,-175 2407.2845,-171.5001 2407.2846,-178.5001"/>
</g>
</g>
</svg>
